<svg xmlns="http://www.w3.org/2000/svg" xmlns:xlink="http://www.w3.org/1999/xlink" version="1.1" id="Layer_1" x="0px" y="0px" width="81.3008130081px" height="100px" viewBox="0 0 100 123.651" enable-background="new 0 0 100 123.651" xml:space="preserve">
<path d="M95.144,0H4.858C2.175,0,0,2.174,0,4.858v9.359h4.612c1.457,0,2.638,1.181,2.638,2.638s-1.181,2.637-2.638,2.637H0v9.716  h4.612c1.457,0,2.638,1.18,2.638,2.638c0,1.456-1.181,2.637-2.638,2.637H0v9.715h4.612c1.457,0,2.638,1.181,2.638,2.637  c0,1.457-1.181,2.638-2.638,2.638H0v9.716h4.612c1.457,0,2.638,1.181,2.638,2.638c0,1.456-1.181,2.637-2.638,2.637H0v9.716h4.612  c1.457,0,2.638,1.181,2.638,2.638c0,1.456-1.181,2.638-2.638,2.638H0v9.715h4.612c1.457,0,2.638,1.181,2.638,2.638  c0,1.456-1.181,2.637-2.638,2.637H0v9.716h4.612c1.457,0,2.638,1.181,2.638,2.637c0,1.457-1.181,2.639-2.638,2.639H0v9.359  c0,2.684,2.175,4.857,4.858,4.857h90.286c2.682,0,4.856-2.174,4.856-4.857V4.858C100,2.174,97.825,0,95.144,0z M80.881,98.226  H23.005c-0.727,0-1.318-0.592-1.318-1.318c0-0.729,0.591-1.32,1.318-1.32h57.876c0.728,0,1.318,0.591,1.318,1.32  C82.199,97.634,81.608,98.226,80.881,98.226z M80.881,80.597H23.005c-0.727,0-1.318-0.59-1.318-1.318s0.591-1.318,1.318-1.318  h57.876c0.728,0,1.318,0.59,1.318,1.318S81.608,80.597,80.881,80.597z M80.881,64.288H23.005c-0.727,0-1.318-0.59-1.318-1.319  c0-0.728,0.591-1.318,1.318-1.318h57.876c0.728,0,1.318,0.591,1.318,1.318C82.199,63.698,81.608,64.288,80.881,64.288z   M80.881,47.495H23.005c-0.727,0-1.318-0.591-1.318-1.319c0-0.729,0.591-1.318,1.318-1.318h57.876c0.728,0,1.318,0.59,1.318,1.318  C82.199,46.904,81.608,47.495,80.881,47.495z M91.912,20.991h-6.21v6.21h-5.207v-6.21h-6.211v-5.208h6.211V9.574h5.207v6.209h6.21  V20.991z"/>
</svg>